<?xml version="1.0" standalone="no"?>
<!DOCTYPE svg PUBLIC "-//W3C//DTD SVG 20010904//EN"
 "http://www.w3.org/TR/2001/REC-SVG-20010904/DTD/svg10.dtd">
<svg version="1.0" xmlns="http://www.w3.org/2000/svg"
 width="180.000000pt" height="148.000000pt" viewBox="0 0 180.000000 148.000000"
 preserveAspectRatio="xMidYMid meet">

<g transform="translate(0.000000,148.000000) scale(0.100000,-0.100000)"
fill="#ffff" stroke="none">
<path d="M10 1340 l0 -130 50 0 50 0 0 -243 0 -242 83 -83 82 -82 113 0 112 0
0 -145 0 -145 -50 0 -50 0 0 -130 0 -130 290 0 290 0 0 130 0 130 -51 0 -50 0
3 33 3 32 84 3 85 3 63 -63 63 -62 0 -103 0 -103 305 0 305 0 0 130 0 130 -72
0 -73 0 -117 117 -118 118 112 112 113 113 77 0 78 0 0 125 0 125 -260 0 -260
0 0 115 0 115 50 0 50 0 0 130 0 130 -290 0 -290 0 0 -130 0 -130 50 0 50 0 0
-115 0 -115 -200 0 -200 0 0 115 0 115 50 0 50 0 0 130 0 130 -290 0 -290 0 0
-130z m550 0 l0 -100 -45 0 -45 0 0 -145 0 -145 220 0 220 0 0 145 0 145 -45
0 -45 0 0 100 0 100 260 0 260 0 0 -100 0 -100 -50 0 -50 0 0 -145 0 -145 260
0 260 0 0 -95 0 -95 -72 0 -71 0 -124 -122 c-67 -67 -123 -126 -123 -131 0 -4
57 -66 127 -138 l128 -129 67 0 68 0 0 -100 0 -100 -275 0 -275 0 0 97 0 97
-62 63 -62 63 -118 0 -118 0 0 -60 0 -60 50 0 50 0 0 -100 0 -100 -260 0 -260
0 0 100 0 100 50 0 50 0 0 175 0 175 -123 0 -123 0 -72 73 -72 72 0 253 0 252
-50 0 -50 0 0 100 0 100 260 0 260 0 0 -100z"/>
<path d="M80 1343 l0 -63 45 0 45 0 0 -257 0 -258 66 -67 66 -68 115 0 114 0
-3 63 -3 62 -47 3 -48 3 0 260 0 259 50 0 50 0 0 60 0 59 -225 3 -225 3 0 -62z"/>
<path d="M1073 1403 l-223 -3 0 -60 0 -60 50 0 50 0 0 -259 0 -260 -47 -3 -48
-3 -3 -62 -3 -63 113 0 114 0 67 68 67 68 0 257 0 257 45 0 45 0 0 65 c0 36
-1 64 -2 63 -2 -2 -103 -4 -225 -5z"/>
<path d="M470 855 l0 -65 45 0 45 0 0 -295 0 -295 -45 0 -45 0 0 -60 0 -60
220 0 220 0 0 60 0 60 -45 0 -45 0 0 100 0 100 138 0 137 0 100 -100 c91 -91
97 -100 72 -100 -26 0 -27 -1 -27 -60 l0 -60 245 0 245 0 0 60 0 60 -58 0 -57
0 -153 153 -152 152 142 142 143 142 65 3 65 3 0 60 0 60 -242 3 -243 2 0 -65
c0 -64 0 -65 27 -65 25 0 19 -9 -72 -100 l-100 -100 -137 0 -138 0 0 100 0
100 45 0 45 0 0 65 0 65 -220 0 -220 0 0 -65z"/>
</g>
</svg>
